<svg viewBox="-209.00000000000003 0 418.00000000000006 100" xmlns="http://www.w3.org/2000/svg"
    xmlns:xlink="http://www.w3.org/1999/xlink" version="1.1">
    <g transform="translate(-222.23943661971833 98.59154929577466) scale(1.9561815336463222)">
        <g>
            <path
                d="M45.216-2.016C45.216-2.544 45.048-3.048 44.712-3.528L24.552-29.016L43.416-46.656C43.848-47.088 44.064-47.592 44.064-48.168C44.064-48.696 43.860-49.176 43.452-49.608C43.044-50.040 42.552-50.256 41.976-50.256C41.352-50.256 40.824-50.016 40.392-49.536L11.304-22.032L11.304-48.168C11.304-48.840 11.100-49.380 10.692-49.788C10.284-50.196 9.744-50.400 9.072-50.400C8.400-50.400 7.848-50.196 7.416-49.788C6.984-49.380 6.768-48.840 6.768-48.168L6.768-2.232C6.768-1.560 6.972-1.020 7.380-0.612C7.788-0.204 8.328 0 9.000 0C9.624 0 10.152-0.204 10.584-0.612C11.016-1.020 11.256-1.560 11.304-2.232L11.304-16.560L21.096-25.776L41.184-0.504C41.616 0.024 42.144 0.288 42.768 0.288C43.392 0.288 43.956 0.084 44.460-0.324C44.964-0.732 45.216-1.296 45.216-2.016Z">
            </path>
            <path
                d="M87.602-36.144C87.194-36.576 86.678-36.792 86.054-36.792C85.430-36.792 84.914-36.576 84.506-36.144C84.098-35.712 83.894-35.184 83.894-34.560L83.894-30.096C82.694-32.352 80.894-34.176 78.494-35.568C76.094-36.960 73.454-37.656 70.574-37.656C67.454-37.656 64.610-36.840 62.042-35.208C59.474-33.576 57.446-31.308 55.958-28.404C54.470-25.500 53.726-22.224 53.726-18.576C53.726-14.928 54.458-11.640 55.922-8.712C57.386-5.784 59.402-3.480 61.970-1.800C64.538-0.120 67.430 0.720 70.646 0.720C73.478 0.720 76.094-0.024 78.494-1.512C80.894-3.000 82.694-4.824 83.894-6.984L83.894-2.160C83.894-1.536 84.098-1.020 84.506-0.612C84.914-0.204 85.430 0 86.054 0C86.678 0 87.194-0.204 87.602-0.612C88.010-1.020 88.214-1.536 88.214-2.160L88.214-34.560C88.214-35.184 88.010-35.712 87.602-36.144ZM77.810-5.292C75.818-3.972 73.574-3.312 71.078-3.312C68.534-3.312 66.266-3.972 64.274-5.292C62.282-6.612 60.734-8.436 59.630-10.764C58.526-13.092 57.974-15.696 57.974-18.576C57.974-21.456 58.538-24.036 59.666-26.316C60.794-28.596 62.354-30.384 64.346-31.680C66.338-32.976 68.582-33.624 71.078-33.624C73.574-33.624 75.818-32.964 77.810-31.644C79.802-30.324 81.362-28.512 82.490-26.208C83.618-23.904 84.182-21.360 84.182-18.576C84.182-15.696 83.618-13.092 82.490-10.764C81.362-8.436 79.802-6.612 77.810-5.292Z">
            </path>
            <path
                d="M128.585-33.732C126.497-36.348 123.221-37.656 118.757-37.656C116.213-37.656 113.729-36.972 111.305-35.604C108.881-34.236 107.021-32.520 105.725-30.456L105.725-34.416C105.725-35.040 105.521-35.556 105.113-35.964C104.705-36.372 104.189-36.576 103.565-36.576C102.941-36.576 102.425-36.372 102.017-35.964C101.609-35.556 101.405-35.040 101.405-34.416L101.405-2.160C101.405-1.536 101.609-1.020 102.017-0.612C102.425-0.204 102.941 0 103.565 0C104.189 0 104.705-0.204 105.113-0.612C105.521-1.020 105.725-1.536 105.725-2.160L105.725-23.112C105.725-24.984 106.301-26.724 107.453-28.332C108.605-29.940 110.105-31.224 111.953-32.184C113.801-33.144 115.757-33.624 117.821-33.624C121.085-33.624 123.497-32.652 125.057-30.708C126.617-28.764 127.397-26.232 127.397-23.112L127.397-2.160C127.397-1.536 127.601-1.020 128.009-0.612C128.417-0.204 128.933 0 129.557 0C130.133 0 130.637-0.204 131.069-0.612C131.501-1.020 131.717-1.536 131.717-2.160L131.717-23.328C131.717-27.648 130.673-31.116 128.585-33.732Z">
            </path>
            <path
                d="M176.335-36.144C175.927-36.576 175.411-36.792 174.787-36.792C174.163-36.792 173.647-36.576 173.239-36.144C172.831-35.712 172.627-35.184 172.627-34.560L172.627-30.096C171.427-32.352 169.627-34.176 167.227-35.568C164.827-36.960 162.187-37.656 159.307-37.656C156.187-37.656 153.343-36.840 150.775-35.208C148.207-33.576 146.179-31.308 144.691-28.404C143.203-25.500 142.459-22.224 142.459-18.576C142.459-14.928 143.191-11.640 144.655-8.712C146.119-5.784 148.135-3.480 150.703-1.800C153.271-0.120 156.163 0.720 159.379 0.720C162.211 0.720 164.827-0.024 167.227-1.512C169.627-3.000 171.427-4.824 172.627-6.984L172.627-2.160C172.627-1.536 172.831-1.020 173.239-0.612C173.647-0.204 174.163 0 174.787 0C175.411 0 175.927-0.204 176.335-0.612C176.743-1.020 176.947-1.536 176.947-2.160L176.947-34.560C176.947-35.184 176.743-35.712 176.335-36.144ZM166.543-5.292C164.551-3.972 162.307-3.312 159.811-3.312C157.267-3.312 154.999-3.972 153.007-5.292C151.015-6.612 149.467-8.436 148.363-10.764C147.259-13.092 146.707-15.696 146.707-18.576C146.707-21.456 147.271-24.036 148.399-26.316C149.527-28.596 151.087-30.384 153.079-31.680C155.071-32.976 157.315-33.624 159.811-33.624C162.307-33.624 164.551-32.964 166.543-31.644C168.535-30.324 170.095-28.512 171.223-26.208C172.351-23.904 172.915-21.360 172.915-18.576C172.915-15.696 172.351-13.092 171.223-10.764C170.095-8.436 168.535-6.612 166.543-5.292Z">
            </path>
            <path
                d="M217.318-33.732C215.230-36.348 211.954-37.656 207.490-37.656C204.946-37.656 202.462-36.972 200.038-35.604C197.614-34.236 195.754-32.520 194.458-30.456L194.458-34.416C194.458-35.040 194.254-35.556 193.846-35.964C193.438-36.372 192.922-36.576 192.298-36.576C191.674-36.576 191.158-36.372 190.750-35.964C190.342-35.556 190.138-35.040 190.138-34.416L190.138-2.160C190.138-1.536 190.342-1.020 190.750-0.612C191.158-0.204 191.674 0 192.298 0C192.922 0 193.438-0.204 193.846-0.612C194.254-1.020 194.458-1.536 194.458-2.160L194.458-23.112C194.458-24.984 195.034-26.724 196.186-28.332C197.338-29.940 198.838-31.224 200.686-32.184C202.534-33.144 204.490-33.624 206.554-33.624C209.818-33.624 212.230-32.652 213.790-30.708C215.350-28.764 216.130-26.232 216.130-23.112L216.130-2.160C216.130-1.536 216.334-1.020 216.742-0.612C217.149-0.204 217.665 0 218.290 0C218.866 0 219.370-0.204 219.802-0.612C220.234-1.020 220.450-1.536 220.450-2.160L220.450-23.328C220.450-27.648 219.406-31.116 217.318-33.732Z">
            </path>
        </g>
    </g>
</svg>