<svg viewBox="0 0 50 50" xmlns="http://www.w3.org/2000/svg" xmlns:xlink="http://www.w3.org/1999/xlink" version="1.1">
    <g transform="translate(0 0) scale(0.5)">
        <g>
            <path
                d="M50 28.324c-21.027 0-37.917 10.081-49.727 25.627 1.426 1.876 2.954 5.411 4.571 7.121 8.745-11.016 19.135-18.93 32.976-21.895a8.234 8.234 0 0 1 1.14-.083 8.54 8.54 0 1 1 0 17.078 8.536 8.536 0 0 1-7.786-5.044 19.098 19.098 0 0 0-.076 1.646c0 10.438 8.462 18.901 18.901 18.901 10.438 0 18.903-8.463 18.903-18.901 0-5.197-2.1-9.902-5.494-13.318 13.332 3.16 23.264 10.927 31.748 21.616 1.617-1.709 3.145-5.244 4.57-7.121C87.916 38.405 71.031 28.324 50 28.324z">
            </path>
        </g>
    </g>
</svg>