<svg viewBox="-192.18309859154928 -113.77153357908816 384.36619718309856 213.77153357908816"
    xmlns="http://www.w3.org/2000/svg" xmlns:xlink="http://www.w3.org/1999/xlink" version="1.1">
    <g transform="translate(-205.4225352112676 98.59154929577466) scale(1.9561815336463222)">
        <g id="line1">
            <path
                d="M45.216-2.016C45.216-2.544 45.048-3.048 44.712-3.528L24.552-29.016L43.416-46.656C43.848-47.088 44.064-47.592 44.064-48.168C44.064-48.696 43.860-49.176 43.452-49.608C43.044-50.040 42.552-50.256 41.976-50.256C41.352-50.256 40.824-50.016 40.392-49.536L11.304-22.032L11.304-48.168C11.304-48.840 11.100-49.380 10.692-49.788C10.284-50.196 9.744-50.400 9.072-50.400C8.400-50.400 7.848-50.196 7.416-49.788C6.984-49.380 6.768-48.840 6.768-48.168L6.768-2.232C6.768-1.560 6.972-1.020 7.380-0.612C7.788-0.204 8.328 0 9.000 0C9.624 0 10.152-0.204 10.584-0.612C11.016-1.020 11.256-1.560 11.304-2.232L11.304-16.560L21.096-25.776L41.184-0.504C41.616 0.024 42.144 0.288 42.768 0.288C43.392 0.288 43.956 0.084 44.460-0.324C44.964-0.732 45.216-1.296 45.216-2.016Z">
            </path>
            <path
                d="M83.304-36.144C82.896-36.576 82.380-36.792 81.756-36.792C81.132-36.792 80.616-36.576 80.208-36.144C79.800-35.712 79.596-35.184 79.596-34.560L79.596-30.096C78.396-32.352 76.596-34.176 74.196-35.568C71.796-36.960 69.156-37.656 66.276-37.656C63.156-37.656 60.312-36.840 57.744-35.208C55.176-33.576 53.148-31.308 51.660-28.404C50.172-25.500 49.428-22.224 49.428-18.576C49.428-14.928 50.160-11.640 51.624-8.712C53.088-5.784 55.104-3.480 57.672-1.800C60.240-0.120 63.132 0.720 66.348 0.720C69.180 0.720 71.796-0.024 74.196-1.512C76.596-3.000 78.396-4.824 79.596-6.984L79.596-2.160C79.596-1.536 79.800-1.020 80.208-0.612C80.616-0.204 81.132 0 81.756 0C82.380 0 82.896-0.204 83.304-0.612C83.712-1.020 83.916-1.536 83.916-2.160L83.916-34.560C83.916-35.184 83.712-35.712 83.304-36.144ZM73.512-5.292C71.520-3.972 69.276-3.312 66.780-3.312C64.236-3.312 61.968-3.972 59.976-5.292C57.984-6.612 56.436-8.436 55.332-10.764C54.228-13.092 53.676-15.696 53.676-18.576C53.676-21.456 54.240-24.036 55.368-26.316C56.496-28.596 58.056-30.384 60.048-31.680C62.040-32.976 64.284-33.624 66.780-33.624C69.276-33.624 71.520-32.964 73.512-31.644C75.504-30.324 77.064-28.512 78.192-26.208C79.320-23.904 79.884-21.360 79.884-18.576C79.884-15.696 79.320-13.092 78.192-10.764C77.064-8.436 75.504-6.612 73.512-5.292Z">
            </path>
            <path
                d="M119.988-33.732C117.900-36.348 114.624-37.656 110.160-37.656C107.616-37.656 105.132-36.972 102.708-35.604C100.284-34.236 98.424-32.520 97.128-30.456L97.128-34.416C97.128-35.040 96.924-35.556 96.516-35.964C96.108-36.372 95.592-36.576 94.968-36.576C94.344-36.576 93.828-36.372 93.420-35.964C93.012-35.556 92.808-35.040 92.808-34.416L92.808-2.160C92.808-1.536 93.012-1.020 93.420-0.612C93.828-0.204 94.344 0 94.968 0C95.592 0 96.108-0.204 96.516-0.612C96.924-1.020 97.128-1.536 97.128-2.160L97.128-23.112C97.128-24.984 97.704-26.724 98.856-28.332C100.008-29.940 101.508-31.224 103.356-32.184C105.204-33.144 107.160-33.624 109.224-33.624C112.488-33.624 114.900-32.652 116.460-30.708C118.020-28.764 118.800-26.232 118.800-23.112L118.800-2.160C118.800-1.536 119.004-1.020 119.412-0.612C119.820-0.204 120.336 0 120.960 0C121.536 0 122.040-0.204 122.472-0.612C122.904-1.020 123.120-1.536 123.120-2.160L123.120-23.328C123.120-27.648 122.076-31.116 119.988-33.732Z">
            </path>
            <path
                d="M163.440-36.144C163.032-36.576 162.516-36.792 161.892-36.792C161.268-36.792 160.752-36.576 160.344-36.144C159.936-35.712 159.732-35.184 159.732-34.560L159.732-30.096C158.532-32.352 156.732-34.176 154.332-35.568C151.932-36.960 149.292-37.656 146.412-37.656C143.292-37.656 140.448-36.840 137.880-35.208C135.312-33.576 133.284-31.308 131.796-28.404C130.308-25.500 129.564-22.224 129.564-18.576C129.564-14.928 130.296-11.640 131.760-8.712C133.224-5.784 135.240-3.480 137.808-1.800C140.376-0.120 143.268 0.720 146.484 0.720C149.316 0.720 151.932-0.024 154.332-1.512C156.732-3.000 158.532-4.824 159.732-6.984L159.732-2.160C159.732-1.536 159.936-1.020 160.344-0.612C160.752-0.204 161.268 0 161.892 0C162.516 0 163.032-0.204 163.440-0.612C163.848-1.020 164.052-1.536 164.052-2.160L164.052-34.560C164.052-35.184 163.848-35.712 163.440-36.144ZM153.648-5.292C151.656-3.972 149.412-3.312 146.916-3.312C144.372-3.312 142.104-3.972 140.112-5.292C138.120-6.612 136.572-8.436 135.468-10.764C134.364-13.092 133.812-15.696 133.812-18.576C133.812-21.456 134.376-24.036 135.504-26.316C136.632-28.596 138.192-30.384 140.184-31.680C142.176-32.976 144.420-33.624 146.916-33.624C149.412-33.624 151.656-32.964 153.648-31.644C155.640-30.324 157.200-28.512 158.328-26.208C159.456-23.904 160.020-21.360 160.020-18.576C160.020-15.696 159.456-13.092 158.328-10.764C157.200-8.436 155.640-6.612 153.648-5.292Z">
            </path>
            <path
                d="M200.124-33.732C198.036-36.348 194.760-37.656 190.296-37.656C187.752-37.656 185.268-36.972 182.844-35.604C180.420-34.236 178.560-32.520 177.264-30.456L177.264-34.416C177.264-35.040 177.060-35.556 176.652-35.964C176.244-36.372 175.728-36.576 175.104-36.576C174.480-36.576 173.964-36.372 173.556-35.964C173.148-35.556 172.944-35.040 172.944-34.416L172.944-2.160C172.944-1.536 173.148-1.020 173.556-0.612C173.964-0.204 174.480 0 175.104 0C175.728 0 176.244-0.204 176.652-0.612C177.060-1.020 177.264-1.536 177.264-2.160L177.264-23.112C177.264-24.984 177.840-26.724 178.992-28.332C180.144-29.940 181.644-31.224 183.492-32.184C185.340-33.144 187.296-33.624 189.360-33.624C192.624-33.624 195.036-32.652 196.596-30.708C198.156-28.764 198.936-26.232 198.936-23.112L198.936-2.160C198.936-1.536 199.140-1.020 199.548-0.612C199.956-0.204 200.472 0 201.096 0C201.672 0 202.176-0.204 202.608-0.612C203.040-1.020 203.256-1.536 203.256-2.160L203.256-23.328C203.256-27.648 202.212-31.116 200.124-33.732Z">
            </path>
        </g>
    </g>
    <g transform="translate(-96.61909251353991 -168.5048629888467) scale(1.9324011636674383)" id="logomark">
        <g>
            <path
                d="M50 28.324c-21.027 0-37.917 10.081-49.727 25.627 1.426 1.876 2.954 5.411 4.571 7.121 8.745-11.016 19.135-18.93 32.976-21.895a8.234 8.234 0 0 1 1.14-.083 8.54 8.54 0 1 1 0 17.078 8.536 8.536 0 0 1-7.786-5.044 19.098 19.098 0 0 0-.076 1.646c0 10.438 8.462 18.901 18.901 18.901 10.438 0 18.903-8.463 18.903-18.901 0-5.197-2.1-9.902-5.494-13.318 13.332 3.16 23.264 10.927 31.748 21.616 1.617-1.709 3.145-5.244 4.57-7.121C87.916 38.405 71.031 28.324 50 28.324z">
            </path>
        </g>
    </g>
</svg>